<svg width="65" height="91" viewBox="0 0 65 91" fill="none" xmlns="http://www.w3.org/2000/svg">
<path d="M41.7993 16.4688V53.8871L35.4917 48.8262V29.3245L31.8299 23.6223H27.5484L24.4024 30.1831V48.8262L16.8476 54.9172V16.4688C16.8476 9.08446 22.481 1.44687 29.3362 1.44687C36.1914 1.44687 41.7993 9.08446 41.7993 16.4688Z" fill="#1EB7E3"/>
<path d="M28.6001 51.684H31.5315V58.9192H28.6001V51.684Z" fill="white"/>
<path d="M60.6707 76.8026C60.768 76.4334 60.8417 76.0598 60.8926 75.6844C60.8935 75.679 60.8945 75.6736 60.8954 75.6673C60.9636 75.2138 60.9991 74.7513 60.9991 74.2842H60.9791C60.9663 73.2667 60.788 72.2518 60.4468 71.2791C59.0549 67.3148 55.2838 64.8333 51.258 64.8522V64.8369C50.1599 64.8387 49.1055 65.0228 48.1239 65.3596C47.7254 64.5989 47.2159 63.9173 46.6191 63.3317C46.7292 63.3263 46.8383 63.3173 46.9457 63.3056C47.1104 63.2895 47.2732 63.2679 47.4333 63.2401H47.6562V63.1988C51.0497 62.5072 53.5189 59.362 53.5189 55.6034V28.5377C53.5189 23.5998 50.6931 19.4146 48.3131 16.7795C47.7454 16.1131 46.9138 15.7207 46.0323 15.7027C45.148 15.7189 44.3137 16.1113 43.7451 16.7795C43.6022 16.9385 43.4403 17.1235 43.2647 17.3346V16.4688C43.2647 8.69468 37.3093 0 29.336 0C21.3626 0 15.4081 8.69468 15.4081 16.4688V17.3795C15.2043 17.1343 15.0187 16.9205 14.8559 16.7409C14.7594 16.6313 14.6548 16.5281 14.5438 16.4329C13.2574 15.3327 11.3105 15.471 10.1951 16.7409C8.67663 18.4213 5.14031 22.9379 5.14031 28.5377V55.889C5.1294 58.0238 6.0319 60.0643 7.62493 61.5076C8.95048 62.6967 10.6791 63.3523 12.4695 63.3443C12.7279 63.3443 12.9799 63.3317 13.2255 63.3056C13.3438 63.294 13.4612 63.2796 13.5776 63.2616C12.697 64.3017 12.0719 65.5689 11.8054 66.9781C11.7744 66.9781 11.7435 66.9771 11.7126 66.9771C6.80794 66.9601 2.81855 70.8705 2.80036 75.7122C2.80036 76.6795 2.96412 77.6405 3.28709 78.5548C1.21188 80.2244 0.00550621 82.7248 4.75254e-05 85.3679C-0.00450138 86.7331 0.317561 88.0802 0.939852 89.2999L3.61552 87.9958C3.18974 87.183 2.96412 86.2822 2.95866 85.3679C2.95502 83.719 3.64827 82.1652 4.83554 81.0614C5.38413 81.6461 6.00733 82.1625 6.69149 82.5972L8.26905 80.1445C7.59308 79.7161 7.00264 79.1727 6.525 78.5413L6.39581 78.3204C5.96821 77.5085 5.7435 76.6077 5.73895 75.6925C5.73804 75.2919 5.77989 74.8923 5.86268 74.4998C6.44312 71.7408 8.90772 69.8439 11.6543 69.8466V69.8718C13.6577 69.8655 15.5237 70.8786 16.5908 72.5518L19.0691 71.0277C18.0374 69.3976 16.5008 68.1815 14.7303 67.5259C15.177 65.0983 17.3205 63.2562 19.9042 63.2401H23.598L26.5293 66.1545L33.7011 66.1347L36.5542 63.2401H38.008C39.4191 63.6415 40.2615 63.8508 40.8265 63.8508C42.8471 63.8544 44.6539 64.9878 45.5401 66.7167C43.2129 68.4375 41.7053 71.1803 41.7008 74.2717H44.6321C44.6367 71.9321 45.8831 69.8808 47.7545 68.7258L48.0438 68.5677C49.8297 67.5942 51.9659 67.4702 53.8555 68.2318C56.7522 69.3994 58.3816 72.3299 57.9941 75.2551C57.9932 75.2614 57.9923 75.2686 57.9913 75.2749C57.692 77.213 56.5239 78.9392 54.7807 79.9496L56.2473 82.4544C57.5428 81.7063 58.6191 80.6842 59.417 79.487C61.0819 80.81 62.291 82.9924 62.0381 84.4985L64.9303 84.9781C65.397 82.2595 63.471 78.7102 60.6707 76.8026ZM45.934 18.7006C45.9631 18.6665 45.9959 18.636 46.0323 18.6099C46.075 18.6351 46.1151 18.6656 46.1505 18.7006C47.82 20.5561 50.6203 24.2941 50.6203 28.5377V55.5899C50.6203 57.5137 49.5977 59.521 47.6562 60.1955V56.8033L43.2647 53.0851V22.6505C44.2282 20.6953 45.4045 19.279 45.934 18.7006ZM18.3394 16.4688C18.3394 10.1936 23.1449 2.89374 29.336 2.89374C35.527 2.89374 40.3334 10.1936 40.3334 16.4688V50.6027L37.4021 48.1212V34.3126C37.4958 30.4372 36.3904 26.6256 34.2333 23.3861C33.4836 22.2302 31.9325 21.5818 30.0729 21.5818C28.2133 21.5818 26.6612 22.2563 25.9115 23.3861C23.7526 26.6247 22.6445 30.4363 22.7373 34.3126V48.1212L18.3394 51.8421V16.4688ZM9.59096 59.3467C8.61477 58.4558 8.06344 57.2011 8.07254 55.889V28.5179C8.07254 23.9178 11.0694 20.0891 12.384 18.6548C12.4186 18.609 12.4713 18.5785 12.5286 18.5713V18.5839C12.5932 18.5866 12.6542 18.6171 12.6933 18.6683C13.2301 19.2619 14.4283 20.6989 15.4081 22.6685V54.3227L12.4759 56.8033V60.438C11.416 60.4406 10.3861 60.0554 9.59096 59.3467ZM32.4656 63.2401H27.7457L24.8071 60.3661H15.4081V58.1406L25.6686 49.4513V34.2937C25.5849 30.9833 26.5247 27.7258 28.3634 24.956C29.4033 24.3004 30.7352 24.3004 31.7751 24.956C33.6174 27.7312 34.5581 30.9958 34.4698 34.3126V49.4513L44.7304 58.1406V60.3463H35.3178L35.2987 60.3661L32.4656 63.2401Z" fill="white"/>
<path d="M44.5605 81.5653H41.6283C41.6356 86.7726 45.9106 90.9928 51.1856 91V88.1063C47.5282 88.1027 44.5642 85.1757 44.5605 81.5653Z" fill="white"/>
<path d="M24.6891 72.6039L24.5053 75.4913C26.2221 75.5937 27.8169 76.3553 28.9605 77.5929C27.7114 79.1862 26.9663 81.1854 26.9635 83.3561H29.9085C29.9121 79.7502 32.8689 76.8259 36.5208 76.8151V73.9214C34.5047 73.9241 32.6351 74.542 31.0939 75.5955C29.4409 73.8334 27.1509 72.7512 24.6891 72.6039Z" fill="white"/>
</svg>
