<svg width="52" height="52" viewBox="0 0 52 52" fill="none" xmlns="http://www.w3.org/2000/svg">
<path d="M26.4346 43.1845C22.5635 43.1871 18.8112 41.8458 15.8173 39.3894C12.8234 36.9329 10.7732 33.5133 10.0159 29.7133C9.2587 25.9132 9.84136 21.9679 11.6646 18.5497C13.4879 15.1315 16.4389 12.4519 20.0147 10.9675C23.5906 9.48324 27.57 9.28606 31.2749 10.4096C34.9797 11.5332 38.1807 13.908 40.3323 17.1292C42.4838 20.3505 43.4529 24.2189 43.0743 28.0753C42.6957 31.9316 40.9928 35.5372 38.2559 38.2776C35.1188 41.4159 30.8662 43.1806 26.4309 43.1845H26.4346ZM26.4346 11.4466C23.472 11.4444 20.5753 12.3218 18.1109 13.9678C15.6465 15.6139 13.7253 17.9546 12.5902 20.6938C11.4551 23.433 11.1571 26.4477 11.734 29.3564C12.311 32.2652 13.7368 34.9373 15.8312 37.0348C17.9255 39.1322 20.5944 40.5608 23.5 41.1397C26.4056 41.7186 29.4175 41.4218 32.1546 40.287C34.8918 39.1521 37.2311 37.2302 38.8768 34.7642C40.5224 32.2983 41.4004 29.3992 41.3997 26.4336C41.3958 22.4607 39.8176 18.6515 37.0113 15.8418C34.2051 13.0322 30.4 11.4515 26.4309 11.4466H26.4346Z" fill="#007698"/>
<path d="M20.2727 25.5499L23.797 29.0775L32.6039 19.382L35.2452 22.0259L23.797 34.369L17.6314 28.1975L20.2727 25.5499Z" fill="#1EB7E3"/>
<path d="M23.8191 35.6374L16.3828 28.1975L20.2727 24.3037L23.7637 27.7907L32.5743 18.1026L36.479 22.0037L23.8191 35.6374ZM18.8763 28.1975L23.7711 33.097L34.0224 22.0481L32.6334 20.6577L23.8265 30.357L20.2727 26.7997L18.8763 28.1975Z" fill="#007698"/>
<path d="M24.9385 52C21.5282 51.862 18.1786 51.0529 15.0807 49.619C11.9829 48.1851 9.19754 46.1545 6.88375 43.6431C4.56995 41.1316 2.77302 38.1886 1.59555 34.982C0.418088 31.7754 -0.116845 28.3681 0.0212976 24.9545C0.0434626 24.4073 0.0877927 23.8452 0.16537 23.1463L1.91641 23.3534C1.84622 24.0005 1.80189 24.5367 1.78342 25.0396C1.65621 28.222 2.15655 31.3984 3.25587 34.3873C4.35519 37.3761 6.03195 40.1189 8.1904 42.4591C10.3488 44.7992 12.9467 46.6908 15.8356 48.0259C18.7244 49.3609 21.8477 50.1132 25.0271 50.2399L24.9385 52ZM36.431 49.8331L35.7402 48.2172C38.7847 46.8812 41.5219 44.9322 43.7815 42.4916C46.041 40.051 47.7745 37.171 48.874 34.0308C49.9735 30.8907 50.4156 27.5576 50.1726 24.239C49.9297 20.9205 49.0069 17.6875 47.4618 14.7413L49.0208 13.9204C50.6783 17.0799 51.6686 20.5471 51.9301 24.1062C52.1915 27.6653 51.7184 31.2401 50.5403 34.6083C49.3621 37.9766 47.5042 41.0661 45.0819 43.6847C42.6597 46.3032 39.7251 48.3949 36.4606 49.8294L36.431 49.8331ZM5.51822 13.044L4.04055 12.1011C5.947 9.08667 8.45244 6.49694 11.4012 4.49284C14.3499 2.48873 17.6789 1.11309 21.1812 0.451396C24.6836 -0.210295 28.2845 -0.143892 31.7602 0.646478C35.2358 1.43685 38.5119 2.93429 41.3849 5.04575L40.3395 6.4657C37.6609 4.49601 34.6062 3.09899 31.3652 2.36151C28.1243 1.62403 24.7664 1.56186 21.5004 2.17886C18.2344 2.79586 15.1301 4.07884 12.3807 5.94802C9.63118 7.8172 7.29528 10.2326 5.51822 13.044Z" fill="#EAF2F7"/>
<path d="M10.1175 40.3631C8.22011 38.3037 6.74658 35.8904 5.78101 33.261C4.81543 30.6315 4.37672 27.8375 4.48992 25.0383C4.60312 22.2391 5.26602 19.4897 6.44077 16.947C7.61551 14.4043 9.2791 12.1181 11.3365 10.2189C11.6653 9.91571 12.0273 9.6088 12.467 9.25381L13.5752 10.6294C13.1652 10.9585 12.8364 11.2395 12.5371 11.5168C8.72688 15.0366 6.46953 19.9273 6.2617 25.113C6.05386 30.2988 7.91255 35.3548 11.4289 39.1687L10.1175 40.3631Z" fill="#EAF2F7"/>
</svg>
