<svg width="59" height="59" viewBox="0 0 59 59" fill="none" xmlns="http://www.w3.org/2000/svg">
<path d="M39.8295 18.9187L44.5255 14.1861L57.6721 27.4355L52.9762 32.1681L39.8295 18.9187Z" fill="#1EB7E3"/>
<path d="M1.32849 27.4367L14.4751 14.1873L19.171 18.9199L6.02441 32.1687L1.32849 27.4367Z" fill="#1EB7E3"/>
<path d="M22.6355 58.9959C11.2167 56.3292 2.42342 47.1415 0.190523 35.5451L2.03377 35.1859C4.12378 46.0456 12.357 54.6508 23.0492 57.151L22.6349 58.9965L22.6355 58.9959ZM35.9829 59L35.5686 57.1545C45.936 54.7838 54.0315 46.6239 56.3815 36.1749L58.2127 36.5925C55.7049 47.754 47.0573 56.4703 35.9829 59ZM9.00219 10.7953L7.63123 9.50093C18.8015 -2.56861 37.5651 -3.22677 49.5416 8.03077C50.0449 8.50386 50.5315 8.9943 51.0004 9.50093L49.6248 10.7912C39.1776 -0.514315 21.6151 -1.14356 10.3973 9.38527C9.91578 9.83696 9.45038 10.306 9.00219 10.7912V10.7953Z" fill="#EAF2F7"/>
<path d="M44.5255 12.8496L38.5022 18.9199L39.7027 20.1304C39.2608 20.4803 38.9108 20.7278 38.7214 20.8111C37.7217 20.7995 33.6961 18.9309 31.8614 18.352C30.4807 18.0084 22.9402 20.5936 20.5305 21.7914L19.0896 20.3392L20.4978 18.9199L14.4745 12.8496L0 27.4372L6.02384 33.5076L7.45448 32.0658L8.01227 32.6221C8.16951 33.0339 8.35602 33.4324 8.5695 33.8141L7.44071 34.9523C6.34176 36.0621 6.34176 37.8585 7.44071 38.9683L18.0664 49.673C18.5932 50.2091 19.3105 50.5098 20.0588 50.5081C20.7997 50.4931 21.5044 50.1819 22.0185 49.6441L22.869 48.7869L23.3935 49.3225L24.9848 50.9257C26.136 52.0864 27.2384 52.3825 28.0665 52.3825C29.5522 52.4855 30.9903 51.2848 31.8741 50.0616C32.8462 50.3612 33.886 50.3508 34.8524 50.0321C35.89 49.695 36.8036 49.0524 37.4744 48.1872C38.7599 48.5469 40.1383 48.2832 41.2028 47.4729C42.0946 46.8483 42.7442 45.9322 43.0426 44.8802C44.6477 44.5529 46.0106 43.491 46.7297 42.0081C47.2651 40.8364 47.272 39.5102 46.7882 38.3553C48.7732 37.1338 50.6882 34.0888 51.8893 32.4157L52.9721 33.5076L59 27.4372L44.5255 12.8496ZM44.5214 15.5256L56.3447 27.4372L52.9767 30.8316L41.1575 18.9199L44.5214 15.5256ZM6.02384 30.8316L2.65584 27.4372L14.4745 15.5256L17.8425 18.9199L6.02384 30.8316ZM20.7262 48.337C20.3543 48.6961 19.7679 48.6961 19.396 48.337L8.77035 37.6324C8.40308 37.2622 8.40308 36.6625 8.77035 36.2923L10.7628 34.2843C11.351 33.6955 12.7604 34.4347 12.967 35.6243C13.01 35.8695 12.9326 36.1159 12.7639 36.2923L14.0935 37.6324C14.8309 36.8626 16.5996 38.3148 16.2461 39.3691C16.2134 39.4674 16.1594 39.5583 16.0819 39.6363L17.4116 40.9764C17.8425 40.5247 18.615 40.8578 19.0689 41.3106C19.5217 41.7623 19.8321 42.5454 19.4 42.9809L20.7302 44.3209C21.544 43.5222 23.292 45.1185 22.8616 46.1167C22.7904 46.285 22.8707 46.1757 20.7262 48.337ZM44.9937 41.2019C44.5008 42.1897 43.5728 42.8716 42.5078 43.0526L35.3505 35.8395L34.0238 37.1772L41.1948 44.4036C41.1029 44.7963 40.7448 45.4447 40.0763 45.9322C39.3842 46.4776 38.4569 46.5956 37.6569 46.2532L31.3886 39.9353L30.0612 41.273L35.8791 47.1358C35.4584 47.6424 34.9012 48.0218 34.2682 48.2242C33.5434 48.4694 32.755 48.4278 32.0623 48.1103L27.8117 43.8276L26.4849 45.1648L30.2994 49.009C29.679 49.8661 28.9422 50.4063 28.2616 50.496C27.6315 50.5792 26.9687 50.2785 26.3019 49.6065L24.7151 48.0073L24.174 47.4556C25.1289 46.3029 24.9378 44.5534 23.6799 43.2857C23.0067 42.583 22.057 42.2042 21.4676 42.2042C21.2513 40.4576 19.8861 39.0817 18.1536 38.8642C17.9372 37.1176 16.572 35.7417 14.8389 35.5243C14.7534 34.6683 14.3672 33.8719 13.7498 33.278C12.6256 32.145 11.1197 31.8703 9.99612 32.5111C9.76543 32.0235 9.7178 31.813 9.67763 31.6707L8.76174 30.7483L17.7628 21.6763L18.9277 22.8498C18.4457 23.4056 18.3034 24.3633 19.0276 25.4957C20.0588 27.107 22.5322 28.602 24.8896 28.2926C27.4341 27.9439 31.8758 26.6142 32.6195 27.3574C34.5299 29.2706 40.6054 35.7047 43.5063 38.2836C43.9017 38.6456 44.4061 38.8602 44.9358 38.8966C45.3013 39.6068 45.3306 40.457 44.9937 41.2019ZM45.6904 36.8123C45.3759 36.9834 45 37.1124 44.7493 36.8556C41.9104 34.33 35.7574 27.8166 33.9492 26.0093C32.2172 24.2748 27.9672 25.9757 24.6325 26.4101C22.8954 26.6409 20.7784 25.2493 20.3865 24.0261C20.6264 23.8145 21.1836 23.5253 21.9285 23.2008C24.7691 21.9614 30.3373 20.1975 31.4305 20.1975C32.7039 20.5647 37.4996 22.9302 39.0072 22.6902C39.4238 22.6277 40.1033 22.2229 41.0433 21.4814L50.5441 31.06C49.8337 31.9859 47.4034 35.884 45.6904 36.8123ZM13.2608 21.4826L11.9341 20.1454L13.8117 18.2531L15.1385 19.5908L13.2608 21.4826ZM35.797 15.8032L34.4702 14.4661L36.3473 12.5737L37.6741 13.9108L35.797 15.8032ZM32.2643 13.539L30.4842 12.9415L31.4224 10.1013L33.2031 10.6987L32.2643 13.539ZM23.2047 15.8015L21.3265 13.9097L22.6532 12.572L24.5315 14.4643L23.2047 15.8015ZM26.7288 13.5407L25.79 10.701L27.5701 10.103L28.5089 12.9433L26.7288 13.5407ZM43.8569 19.5902L45.1842 18.2531L47.0619 20.1454L45.7352 21.4831L43.8575 19.5908L43.8569 19.5902Z" fill="#007698"/>
</svg>
