<?xml version="1.0" standalone="no"?>
<!DOCTYPE svg PUBLIC "-//W3C//DTD SVG 20010904//EN"
 "http://www.w3.org/TR/2001/REC-SVG-20010904/DTD/svg10.dtd">
<svg version="1.0" xmlns="http://www.w3.org/2000/svg"
 width="512.000000pt" height="512.000000pt" viewBox="0 0 512.000000 512.000000"
 preserveAspectRatio="xMidYMid meet">

<g transform="translate(0.000000,512.000000) scale(0.100000,-0.100000)"
fill="#98AFBA" stroke="none">
<path d="M1175 4111 c-130 -32 -198 -156 -156 -286 11 -33 124 -151 624 -652
l612 -613 -612 -612 c-500 -502 -613 -620 -624 -653 -56 -174 90 -329 261
-279 53 15 75 35 668 627 l612 612 613 -612 c501 -500 619 -613 652 -624 180
-58 334 96 276 276 -11 33 -124 151 -624 653 l-612 612 612 613 c500 501 613
619 624 652 56 174 -89 329 -261 279 -53 -15 -75 -35 -667 -627 l-613 -612
-613 612 c-591 591 -614 612 -666 627 -59 17 -62 17 -106 7z"/>
</g>
</svg>
