<svg width="20" height="20" viewBox="0 0 20 20" fill="none" xmlns="http://www.w3.org/2000/svg">
<path fill-rule="evenodd" clip-rule="evenodd" d="M9.77778 1.98656C12.3903 1.98656 12.6997 1.99803 13.7271 2.0439C14.6819 2.08596 15.1976 2.24653 15.5413 2.38033C15.9958 2.5562 16.3243 2.77029 16.6642 3.11054C17.008 3.45462 17.2181 3.77958 17.3938 4.23453C17.5274 4.5786 17.6878 5.09854 17.7299 6.05048C17.7757 7.08271 17.7872 7.39238 17.7872 10.0035C17.7872 12.6185 17.7757 12.9282 17.7299 13.9566C17.6878 14.9124 17.5274 15.4285 17.3938 15.7726C17.2181 16.2275 17.0042 16.5563 16.6642 16.8965C16.3205 17.2406 15.9958 17.4509 15.5413 17.6268C15.1976 17.7606 14.6781 17.9211 13.7271 17.9632C12.6958 18.0091 12.3865 18.0205 9.77778 18.0205C7.16528 18.0205 6.8559 18.0091 5.82847 17.9632C4.87361 17.9211 4.35799 17.7606 4.01424 17.6268C3.55972 17.4509 3.23125 17.2368 2.89132 16.8965C2.54757 16.5525 2.3375 16.2275 2.16181 15.7726C2.02813 15.4285 1.86771 14.9085 1.82569 13.9566C1.77986 12.9244 1.7684 12.6147 1.7684 10.0035C1.7684 7.38856 1.77986 7.07889 1.82569 6.05048C1.86771 5.09472 2.02813 4.5786 2.16181 4.23453C2.3375 3.77958 2.55139 3.4508 2.89132 3.11054C3.23507 2.76646 3.55972 2.5562 4.01424 2.38033C4.35799 2.24653 4.87743 2.08596 5.82847 2.0439C6.8559 1.99803 7.16528 1.98656 9.77778 1.98656ZM9.77778 0.224121C7.12326 0.224121 6.79097 0.23559 5.74826 0.281467C4.70938 0.327344 3.99514 0.495559 3.37639 0.736413C2.7309 0.988736 2.18472 1.32134 1.64236 1.86804C1.09618 2.41092 0.763889 2.95762 0.511806 3.5999C0.271181 4.22306 0.103125 4.93415 0.0572917 5.97402C0.0114583 7.02155 0 7.35415 0 10.0112C0 12.6682 0.0114583 13.0008 0.0572917 14.0445C0.103125 15.0844 0.271181 15.7993 0.511806 16.4187C0.763889 17.0648 1.09618 17.6115 1.64236 18.1543C2.18472 18.6972 2.7309 19.0336 3.37257 19.2821C3.99514 19.523 4.70556 19.6912 5.74444 19.7371C6.78715 19.783 7.11944 19.7944 9.77396 19.7944C12.4285 19.7944 12.7608 19.783 13.8035 19.7371C14.8424 19.6912 15.5566 19.523 16.1753 19.2821C16.817 19.0336 17.3632 18.6972 17.9056 18.1543C18.4479 17.6115 18.784 17.0648 19.0323 16.4225C19.2729 15.7993 19.441 15.0882 19.4868 14.0484C19.5326 13.0047 19.5441 12.672 19.5441 10.015C19.5441 7.35798 19.5326 7.02537 19.4868 5.98167C19.441 4.94179 19.2729 4.22688 19.0323 3.60754C18.7917 2.95762 18.4594 2.41092 17.9132 1.86804C17.3708 1.32517 16.8247 0.988736 16.183 0.740236C15.5604 0.499382 14.85 0.331167 13.8111 0.28529C12.7646 0.23559 12.4323 0.224121 9.77778 0.224121ZM9.77779 4.98389C7.00487 4.98389 4.75522 7.23568 4.75522 10.0112C4.75522 12.7868 7.00487 15.0386 9.77779 15.0386C12.5507 15.0386 14.8004 12.7868 14.8004 10.0112C14.8004 7.23568 12.5507 4.98389 9.77779 4.98389ZM9.77779 13.2723C7.97883 13.2723 6.5198 11.8119 6.5198 10.0112C6.5198 8.21056 7.97883 6.75015 9.77779 6.75015C11.5767 6.75015 13.0358 8.21056 13.0358 10.0112C13.0358 11.8119 11.5767 13.2723 9.77779 13.2723ZM14.999 5.9585C15.6445 5.9585 16.1715 5.43478 16.1715 4.78491C16.1715 4.13887 15.6445 3.61133 14.999 3.61133C14.3535 3.61133 13.8264 4.13504 13.8264 4.78491C13.8264 5.43096 14.3497 5.9585 14.999 5.9585Z" fill="#151515"/>
</svg>
