<svg width="21" height="21" viewBox="0 0 21 21" fill="none" xmlns="http://www.w3.org/2000/svg">
<path d="M19.0636 0H2.02063C1.20422 0 0.544067 0.645137 0.544067 1.44276V18.5721C0.544067 19.3698 1.20422 20.0188 2.02063 20.0188H19.0636C19.88 20.0188 20.5441 19.3698 20.5441 18.576V1.44276C20.5441 0.645137 19.88 0 19.0636 0ZM6.47766 17.059H3.50891V7.50314H6.47766V17.059ZM4.99329 6.20114C4.04016 6.20114 3.27063 5.43088 3.27063 4.48077C3.27063 3.53066 4.04016 2.7604 4.99329 2.7604C5.9425 2.7604 6.71204 3.53066 6.71204 4.48077C6.71204 5.42697 5.9425 6.20114 4.99329 6.20114ZM17.587 17.059H14.6222V12.414C14.6222 11.3075 14.6027 9.88037 13.0792 9.88037C11.5363 9.88037 11.3019 11.0885 11.3019 12.3358V17.059H8.34094V7.50314H11.1847V8.80905H11.2238C11.6183 8.05835 12.587 7.26464 14.0284 7.26464C17.0324 7.26464 17.587 9.24306 17.587 11.8158V17.059Z" fill="#151515"/>
</svg>
