<svg width="160" height="39" viewBox="0 0 160 39" fill="none" xmlns="http://www.w3.org/2000/svg">
<path d="M155.211 23.4521C154.486 22.8583 154.675 21.1019 156.63 21.1019C157.706 21.1019 158.434 21.6427 158.726 22.4122L159.98 21.994C159.603 20.8733 158.473 19.9644 156.723 19.9644C152.949 19.9644 152.809 23.4911 154.646 24.5979C155.857 25.3284 157.209 25.1974 158.162 25.925C159.125 26.6638 158.766 28.3003 156.551 28.3003C155.444 28.2836 154.694 27.6479 154.441 26.9649L153.188 27.3719C153.483 28.3951 154.691 29.4406 156.709 29.4406C159.856 29.4406 160.814 26.792 159.288 25.2197C158.01 23.9037 156.183 24.2467 155.211 23.4521Z" fill="#1EB7E3"/>
<path d="M149.473 27.3218L144.25 20.2794H142.918V29.4406H144.211V22.3341L149.473 29.4406H150.78V20.2794H149.473V27.3218Z" fill="#1EB7E3"/>
<path d="M135.944 19.9644C133.232 19.9644 131.367 21.9606 131.367 24.7011C131.367 27.4416 133.249 29.4378 135.972 29.4378C138.695 29.4378 140.51 27.45 140.51 24.7011C140.51 21.9522 138.686 19.9644 135.947 19.9644H135.944ZM135.972 28.2613C134.16 28.2613 132.687 26.8924 132.687 24.7011C132.687 22.6882 133.98 21.1409 135.944 21.1409C137.908 21.1409 139.189 22.6631 139.189 24.7011C139.189 26.7391 137.933 28.2613 135.972 28.2613Z" fill="#1EB7E3"/>
<path d="M128.956 20.2794H127.663V29.4406H128.956V20.2794Z" fill="#1EB7E3"/>
<path d="M118.169 21.4587H121.057V29.4406H122.364V21.4587H125.252V20.2794H118.169V21.4587Z" fill="#1EB7E3"/>
<path d="M114.429 25.9473C114.429 27.3301 113.493 28.2501 112.108 28.2501C110.723 28.2501 109.787 27.2688 109.787 25.9473V20.0843H108.494V25.9473C108.494 27.9964 109.891 29.4406 112.083 29.4406C114.274 29.4406 115.735 27.9937 115.735 25.9473V20.0843H114.429V25.9473Z" fill="#1EB7E3"/>
<path d="M101.796 20.2794H100.503V29.4406H106.081V28.2613H101.796V20.2766V20.2794Z" fill="#1EB7E3"/>
<path d="M93.5263 19.9644C90.8148 19.9644 88.949 21.9606 88.949 24.7011C88.949 27.4416 90.8316 29.4378 93.5544 29.4378C96.2771 29.4378 98.0923 27.45 98.0923 24.7011C98.0923 21.9522 96.2687 19.9644 93.5291 19.9644H93.5263ZM93.5544 28.2613C91.742 28.2613 90.2697 26.8924 90.2697 24.7011C90.2697 22.6882 91.5622 21.1409 93.5263 21.1409C95.4904 21.1409 96.7717 22.6631 96.7717 24.7011C96.7717 26.7391 95.5157 28.2613 93.5544 28.2613Z" fill="#1EB7E3"/>
<path d="M81.7698 23.4521C81.0449 22.8583 81.2331 21.1019 83.1888 21.1019C84.265 21.1019 84.9927 21.6427 85.285 22.4122L86.5382 21.994C86.1616 20.8733 85.0321 19.9644 83.2815 19.9644C79.5079 19.9644 79.3674 23.4911 81.205 24.5979C82.4161 25.3284 83.7676 25.1974 84.7202 25.925C85.6727 26.6527 85.3243 28.3003 83.1101 28.3003C82.003 28.2836 81.2528 27.6479 80.9999 26.9649L79.7467 27.3719C80.0417 28.3951 81.25 29.4406 83.2675 29.4406C86.4145 29.4406 87.3727 26.792 85.8469 25.2197C84.5684 23.9037 82.742 24.2467 81.7698 23.4521Z" fill="#1EB7E3"/>
<path d="M74.7058 10.1314L63.3905 38.1724L68.3021 37.3946L79.7467 10.1314H74.7058Z" fill="#1EB7E3"/>
<path d="M65.5962 29.9814L56.6328 10.1314H61.6821L66.0627 20.6447C67.063 23.0451 67.1276 25.7271 66.2481 28.1721L65.5962 29.9814Z" fill="#1EB7E3"/>
<path d="M46.9359 31.1524C43.1173 31.1524 39.7006 29.4768 38.245 26.1425L42.2603 24.3777C43.0583 25.7995 44.7667 27.0039 46.8123 27.0039C48.4027 27.0039 50.3303 26.5634 50.3303 24.991C50.3303 23.5636 48.9197 23.0423 47.5176 22.691C45.0028 21.9996 42.7464 21.5702 40.9369 19.7971C37.7056 16.63 38.7761 9.6351 47.1017 9.6351C50.4595 9.6351 53.9718 11.1657 54.9637 14.1097L51.1142 15.8327C50.4989 14.3105 48.591 13.7389 46.9753 13.7389C44.0334 13.7389 43.3225 16.0501 44.7414 17.0845C45.7418 17.8121 47.2338 18.0435 49.1698 18.5007C53.039 19.4403 55.0452 22.231 55.0452 24.9883C55.0452 29.0224 51.1985 31.1468 46.9359 31.1468V31.1524Z" fill="#1EB7E3"/>
<path d="M44.4576 0L33.96 8.14635L0 34.5369C2.73681 32.616 6.99375 29.9954 11.1074 27.0569C13.7964 29.5828 17.4296 31.1524 21.4449 31.1524C29.7199 31.1524 36.4243 24.5004 36.4243 16.2899C36.4243 13.8923 35.8482 11.6368 34.8395 9.63789C38.3125 6.76353 41.4342 3.41243 44.4576 0ZM21.4449 26.661C18.9497 26.661 16.6597 25.8023 14.867 24.3582C18.0365 22.0888 20.9812 19.9588 23.1083 18.4032C25.862 16.5129 28.5651 14.5753 31.1895 12.5429C31.6531 13.7027 31.9088 14.9712 31.9088 16.2899C31.9088 22.0219 27.2191 26.6582 21.4421 26.6582L21.4449 26.661Z" fill="#1EB7E3"/>
<path d="M21.4449 1.43021C13.1698 1.43021 6.46549 8.08222 6.46549 16.2927C6.46549 19.9756 7.82547 23.3434 10.0649 25.9473L13.5857 23.1203C11.97 21.2942 10.9922 18.8966 10.9922 16.2927C10.9922 10.5607 15.665 5.92436 21.4421 5.92436C24.8841 5.92436 27.9385 7.57482 29.8267 10.1174L33.3474 7.29045C30.6275 3.73304 26.3059 1.43021 21.4421 1.43021H21.4449Z" fill="#98AFBA"/>
</svg>
