<svg width="397" height="95" viewBox="0 0 397 95" fill="none" xmlns="http://www.w3.org/2000/svg">
<path d="M385.118 58.3655C383.319 56.8876 383.786 52.5164 388.639 52.5164C391.309 52.5164 393.115 53.8625 393.84 55.7775L396.949 54.7367C396.015 51.9475 393.212 49.6856 388.869 49.6856C379.505 49.6856 379.157 58.4626 383.716 61.2171C386.721 63.035 390.075 62.7089 392.438 64.5198C394.83 66.3585 393.937 70.4313 388.443 70.4313C385.696 70.3896 383.835 68.8077 383.207 67.1078L380.098 68.1208C380.83 70.6672 383.828 73.2691 388.834 73.2691C396.642 73.2691 399.02 66.6776 395.234 62.7644C392.062 59.4895 387.53 60.3429 385.118 58.3655Z" fill="#E8ECF3"/>
<path d="M370.881 67.9959L357.92 50.4696H354.615V73.2691H357.822V55.5832L370.881 73.2691H374.123V50.4696H370.881V67.9959Z" fill="#E8ECF3"/>
<path d="M337.311 49.6856C330.583 49.6856 325.954 54.6535 325.954 61.4739C325.954 68.2943 330.625 73.2621 337.381 73.2621C344.137 73.2621 348.64 68.3151 348.64 61.4739C348.64 54.6326 344.116 49.6856 337.318 49.6856H337.311ZM337.381 70.3341C332.884 70.3341 329.23 66.9274 329.23 61.4739C329.23 56.4644 332.438 52.6136 337.311 52.6136C342.184 52.6136 345.364 56.4019 345.364 61.4739C345.364 66.5458 342.247 70.3341 337.381 70.3341Z" fill="#E8ECF3"/>
<path d="M319.972 50.4696H316.765V73.2691H319.972V50.4696Z" fill="#E8ECF3"/>
<path d="M293.206 53.4045H300.373V73.2691H303.615V53.4045H310.783V50.4696H293.206V53.4045Z" fill="#E8ECF3"/>
<path d="M283.927 64.5753C283.927 68.0167 281.605 70.3064 278.168 70.3064C274.731 70.3064 272.409 67.8641 272.409 64.5753V49.9839H269.202V64.5753C269.202 69.675 272.667 73.2691 278.105 73.2691C283.543 73.2691 287.169 69.6681 287.169 64.5753V49.9839H283.927V64.5753Z" fill="#E8ECF3"/>
<path d="M252.581 50.4696H249.373V73.2691H263.213V70.3341H252.581V50.4627V50.4696Z" fill="#E8ECF3"/>
<path d="M232.062 49.6856C225.334 49.6856 220.705 54.6535 220.705 61.4739C220.705 68.2943 225.376 73.2621 232.132 73.2621C238.888 73.2621 243.392 68.3151 243.392 61.4739C243.392 54.6326 238.867 49.6856 232.069 49.6856H232.062ZM232.132 70.3341C227.635 70.3341 223.982 66.9274 223.982 61.4739C223.982 56.4644 227.189 52.6136 232.062 52.6136C236.936 52.6136 240.115 56.4019 240.115 61.4739C240.115 66.5458 236.998 70.3341 232.132 70.3341Z" fill="#E8ECF3"/>
<path d="M202.891 58.3655C201.093 56.8876 201.56 52.5164 206.412 52.5164C209.082 52.5164 210.888 53.8625 211.613 55.7775L214.723 54.7367C213.789 51.9475 210.986 49.6856 206.642 49.6856C197.279 49.6856 196.93 58.4626 201.49 61.2171C204.495 63.035 207.848 62.7089 210.212 64.5198C212.575 66.3307 211.711 70.4313 206.217 70.4313C203.47 70.3896 201.608 68.8077 200.981 67.1078L197.872 68.1208C198.604 70.6672 201.602 73.2691 206.607 73.2691C214.416 73.2691 216.793 66.6776 213.008 62.7644C209.835 59.4895 205.304 60.3429 202.891 58.3655Z" fill="#E8ECF3"/>
<path d="M185.364 25.214L157.288 95L169.475 93.0642L197.872 25.214H185.364Z" fill="#E8ECF3"/>
<path d="M162.761 74.6151L140.52 25.214H153.049L163.918 51.3785C166.4 57.3525 166.56 64.0272 164.378 70.1121L162.761 74.6151Z" fill="#E8ECF3"/>
<path d="M116.46 77.5292C106.985 77.5292 98.507 73.3593 94.8955 65.061L104.858 60.669C106.838 64.2076 111.077 67.2049 116.153 67.2049C120.099 67.2049 124.882 66.1087 124.882 62.1954C124.882 58.643 121.382 57.3455 117.903 56.4713C111.663 54.7506 106.065 53.6821 101.575 49.2693C93.5569 41.3873 96.2132 23.979 116.871 23.979C125.203 23.979 133.918 27.7881 136.379 35.115L126.827 39.4029C125.3 35.6146 120.566 34.1922 116.557 34.1922C109.258 34.1922 107.494 39.9441 111.015 42.5183C113.497 44.3292 117.199 44.9051 122.003 46.0429C131.603 48.3812 136.581 55.3265 136.581 62.1885C136.581 72.2283 127.036 77.5153 116.46 77.5153V77.5292Z" fill="#E8ECF3"/>
<path d="M110.311 0L84.2633 20.2739L0 85.9524C6.7907 81.1719 17.3532 74.6498 27.5602 67.3368C34.2324 73.6229 43.2471 77.5292 53.2101 77.5292C73.7425 77.5292 90.3777 60.9743 90.3777 40.5408C90.3777 34.5738 88.9484 28.9607 86.4455 23.9859C95.0628 16.8325 102.809 8.49255 110.311 0ZM53.2101 66.3515C47.019 66.3515 41.3368 64.2145 36.8887 60.6204C44.7531 54.9726 52.0597 49.6717 57.3375 45.8001C64.17 41.0959 70.8771 36.2737 77.3889 31.2157C78.5393 34.102 79.1737 37.259 79.1737 40.5408C79.1737 54.8061 67.5375 66.3446 53.2031 66.3446L53.2101 66.3515Z" fill="#E8ECF3"/>
<path d="M53.2101 3.55938C32.6776 3.55938 16.0425 20.1143 16.0425 40.5478C16.0425 49.7133 19.4169 58.0949 24.9736 64.5753L33.7095 57.5398C29.7006 52.9952 27.2744 47.0282 27.2744 40.5478C27.2744 26.2825 38.8687 14.744 53.2031 14.744C61.7438 14.744 69.3223 18.8515 74.0075 25.1793L82.7433 18.1438C75.9945 9.29046 65.2716 3.55938 53.2031 3.55938H53.2101Z" fill="#E8ECF3"/>
</svg>
