<svg width="20" height="17" viewBox="0 0 20 17" fill="none" xmlns="http://www.w3.org/2000/svg">
<path d="M6.2918 16.0173C13.8371 16.0173 17.9652 9.8551 17.9652 4.51286C17.9652 4.33963 17.9613 4.16254 17.9535 3.9893C18.7566 3.41696 19.4496 2.70803 20 1.89583C19.2521 2.22376 18.458 2.43794 17.6449 2.53103C18.5011 2.02527 19.1421 1.23074 19.4492 0.294736C18.6438 0.765152 17.763 1.09699 16.8445 1.27603C16.2257 0.628003 15.4075 0.198934 14.5164 0.0551579C13.6253 -0.0886182 12.711 0.0609063 11.9148 0.480614C11.1186 0.900321 10.4848 1.56683 10.1115 2.37711C9.73825 3.18738 9.64619 4.09628 9.84961 4.96328C8.21874 4.88262 6.62328 4.4651 5.16665 3.73778C3.71002 3.01045 2.42474 1.98957 1.39414 0.741302C0.870333 1.63134 0.710047 2.68454 0.945859 3.68685C1.18167 4.68917 1.79589 5.56539 2.66367 6.13744C2.01219 6.11706 1.37498 5.94419 0.804688 5.63313V5.68317C0.804104 6.6172 1.13175 7.5226 1.73192 8.24547C2.3321 8.96834 3.16777 9.46406 4.09687 9.64837C3.49338 9.8111 2.85999 9.83481 2.2457 9.71767C2.50788 10.5209 3.01798 11.2235 3.70481 11.7273C4.39164 12.2311 5.22093 12.511 6.07695 12.528C4.62369 13.653 2.82848 14.2632 0.980469 14.2603C0.652739 14.2598 0.325333 14.24 0 14.201C1.87738 15.388 4.06128 16.0185 6.2918 16.0173Z" fill="#151515"/>
</svg>
