<svg width="20" height="20" viewBox="0 0 20 20" fill="none" xmlns="http://www.w3.org/2000/svg">
<path d="M10 1.80273C12.6719 1.80273 12.9883 1.81445 14.0391 1.86133C15.0156 1.9043 15.543 2.06836 15.8945 2.20508C16.3594 2.38477 16.6953 2.60352 17.043 2.95117C17.3945 3.30273 17.6094 3.63477 17.7891 4.09961C17.9258 4.45117 18.0898 4.98242 18.1328 5.95508C18.1797 7.00976 18.1914 7.32617 18.1914 9.99414C18.1914 12.666 18.1797 12.9824 18.1328 14.0332C18.0898 15.0098 17.9258 15.5371 17.7891 15.8887C17.6094 16.3535 17.3906 16.6895 17.043 17.0371C16.6914 17.3887 16.3594 17.6035 15.8945 17.7832C15.543 17.9199 15.0117 18.084 14.0391 18.127C12.9844 18.1738 12.668 18.1855 10 18.1855C7.32813 18.1855 7.01172 18.1738 5.96094 18.127C4.98438 18.084 4.45703 17.9199 4.10547 17.7832C3.64063 17.6035 3.30469 17.3848 2.95703 17.0371C2.60547 16.6855 2.39063 16.3535 2.21094 15.8887C2.07422 15.5371 1.91016 15.0059 1.86719 14.0332C1.82031 12.9785 1.80859 12.6621 1.80859 9.99414C1.80859 7.32227 1.82031 7.00586 1.86719 5.95508C1.91016 4.97852 2.07422 4.45117 2.21094 4.09961C2.39063 3.63477 2.60938 3.29883 2.95703 2.95117C3.30859 2.59961 3.64063 2.38477 4.10547 2.20508C4.45703 2.06836 4.98828 1.9043 5.96094 1.86133C7.01172 1.81445 7.32813 1.80273 10 1.80273ZM10 0.00195312C7.28516 0.00195312 6.94531 0.0136719 5.87891 0.0605469C4.81641 0.107422 4.08594 0.279297 3.45313 0.525391C2.79297 0.783203 2.23438 1.12305 1.67969 1.68164C1.12109 2.23633 0.78125 2.79492 0.523438 3.45117C0.277344 4.08789 0.105469 4.81445 0.0585938 5.87695C0.0117188 6.94726 0 7.28711 0 10.002C0 12.7168 0.0117188 13.0566 0.0585938 14.123C0.105469 15.1855 0.277344 15.916 0.523438 16.5488C0.78125 17.209 1.12109 17.7676 1.67969 18.3223C2.23438 18.877 2.79297 19.2207 3.44922 19.4746C4.08594 19.7207 4.8125 19.8926 5.875 19.9395C6.94141 19.9863 7.28125 19.998 9.99609 19.998C12.7109 19.998 13.0508 19.9863 14.1172 19.9395C15.1797 19.8926 15.9102 19.7207 16.543 19.4746C17.1992 19.2207 17.7578 18.877 18.3125 18.3223C18.8672 17.7676 19.2109 17.209 19.4648 16.5527C19.7109 15.916 19.8828 15.1895 19.9297 14.127C19.9766 13.0605 19.9883 12.7207 19.9883 10.0059C19.9883 7.29102 19.9766 6.95117 19.9297 5.88477C19.8828 4.82227 19.7109 4.0918 19.4648 3.45898C19.2188 2.79492 18.8789 2.23633 18.3203 1.68164C17.7656 1.12695 17.207 0.783203 16.5508 0.529297C15.9141 0.283203 15.1875 0.111328 14.125 0.0644531C13.0547 0.0136719 12.7148 0.00195312 10 0.00195312Z" fill="white"/>
<path d="M10 4.86523C7.16406 4.86523 4.86328 7.16602 4.86328 10.002C4.86328 12.8379 7.16406 15.1387 10 15.1387C12.8359 15.1387 15.1367 12.8379 15.1367 10.002C15.1367 7.16602 12.8359 4.86523 10 4.86523ZM10 13.334C8.16016 13.334 6.66797 11.8418 6.66797 10.002C6.66797 8.16211 8.16016 6.66992 10 6.66992C11.8398 6.66992 13.332 8.16211 13.332 10.002C13.332 11.8418 11.8398 13.334 10 13.334Z" fill="white"/>
<path d="M16.5391 4.66207C16.5391 5.32614 16 5.86129 15.3398 5.86129C14.6758 5.86129 14.1406 5.32223 14.1406 4.66207C14.1406 3.99801 14.6797 3.46285 15.3398 3.46285C16 3.46285 16.5391 4.00192 16.5391 4.66207Z" fill="white"/>
</svg>
