<svg width="25" height="20" viewBox="0 0 25 20" fill="none" xmlns="http://www.w3.org/2000/svg">
<path d="M8.53844 20C17.5928 20 22.5466 12.3046 22.5466 5.63322C22.5466 5.41688 22.5419 5.19574 22.5325 4.9794C23.4962 4.26466 24.3278 3.37935 24.9883 2.36507C24.0908 2.7746 23.1379 3.04206 22.1622 3.15831C23.1896 2.52672 23.9588 1.53451 24.3273 0.365627C23.3608 0.953083 22.3039 1.36748 21.2017 1.59106C20.4591 0.781811 19.4773 0.24599 18.408 0.0664421C17.3387 -0.113105 16.2415 0.0736207 15.286 0.597751C14.3306 1.12188 13.5701 1.95422 13.1221 2.96609C12.6742 3.97796 12.5637 5.11299 12.8078 6.1957C10.8508 6.09498 8.93622 5.57358 7.18826 4.6653C5.44031 3.75702 3.89797 2.48213 2.66125 0.923299C2.03268 2.03477 1.84034 3.35001 2.12331 4.6017C2.40629 5.85339 3.14334 6.94762 4.18469 7.66199C3.40291 7.63654 2.63826 7.42066 1.95391 7.03221V7.09471C1.95321 8.26111 2.34638 9.39178 3.06659 10.2945C3.7868 11.1972 4.7896 11.8163 5.90453 12.0464C5.18034 12.2497 4.42026 12.2793 3.68313 12.133C3.99774 13.1361 4.60985 14.0135 5.43405 14.6426C6.25825 15.2718 7.2534 15.6213 8.28063 15.6425C6.53671 17.0474 4.38246 17.8095 2.16484 17.8058C1.77157 17.8052 1.37868 17.7805 0.988281 17.7318C3.24114 19.2141 5.86181 20.0014 8.53844 20Z" fill="white"/>
</svg>
